<?xml version="1.0" standalone="no"?>
<!DOCTYPE svg PUBLIC "-//W3C//DTD SVG 20010904//EN"
 "http://www.w3.org/TR/2001/REC-SVG-20010904/DTD/svg10.dtd">
<svg version="1.0" xmlns="http://www.w3.org/2000/svg"
 width="1224.000000pt" height="792.000000pt" viewBox="0 0 1224.000000 792.000000"
 preserveAspectRatio="xMidYMid meet">

<g transform="translate(0.000000,792.000000) scale(0.100000,-0.100000)"
fill="#000000" stroke="none">
<path d="M8430 6280 c-52 -4 -142 -17 -200 -28 -58 -12 -127 -24 -155 -28
-105 -14 -247 -65 -274 -98 -15 -17 -46 -22 -36 -6 11 18 -16 10 -106 -31 -49
-23 -89 -48 -89 -55 0 -8 -7 -14 -15 -14 -9 0 -27 -11 -41 -25 -24 -24 -25
-24 -19 -4 6 19 4 21 -11 15 -39 -14 -222 -129 -309 -194 -110 -81 -300 -264
-366 -352 l-49 -65 28 -10 c90 -33 102 -61 102 -245 0 -161 -9 -193 -68 -238
-33 -25 -44 -27 -161 -32 -129 -6 -162 -15 -181 -50 -19 -36 -31 -123 -20
-150 6 -16 7 -67 2 -145 -6 -93 -5 -128 5 -153 8 -18 11 -37 8 -42 -3 -5 3
-30 14 -57 24 -62 31 -34 14 62 -14 82 -17 239 -4 231 5 -3 7 -23 4 -45 -5
-39 20 -164 57 -282 10 -34 16 -75 13 -92 -4 -27 2 -40 36 -78 22 -26 64 -61
91 -79 47 -30 53 -32 77 -19 24 13 27 12 57 -22 17 -19 44 -41 59 -47 15 -7
30 -19 33 -27 4 -8 16 -15 29 -15 24 0 56 -42 68 -90 6 -24 19 -34 121 -92 59
-33 56 -33 56 -9 0 43 56 37 66 -7 4 -15 13 -40 21 -55 13 -25 12 -35 -8 -95
-12 -37 -33 -87 -46 -111 -28 -54 -29 -65 -2 -92 15 -15 18 -24 10 -32 -6 -6
-11 -30 -11 -54 0 -38 6 -50 54 -102 30 -33 64 -77 75 -98 36 -72 91 -158 108
-170 9 -7 30 -13 46 -13 21 0 45 -14 86 -52 54 -50 57 -54 88 -162 18 -61 35
-136 39 -166 4 -30 17 -77 31 -103 13 -27 32 -82 43 -124 10 -42 33 -98 49
-125 17 -27 31 -52 31 -55 0 -4 16 -21 35 -39 19 -17 35 -41 35 -53 0 -14 11
-28 30 -39 16 -9 30 -24 30 -34 0 -35 208 -156 244 -142 16 6 15 9 -11 23 -67
36 -103 72 -103 103 0 20 -10 39 -29 57 -26 24 -28 30 -21 73 6 42 4 47 -14
53 -21 6 -21 6 1 15 19 8 21 13 13 34 -10 27 2 36 44 36 48 0 62 56 24 97
l-22 23 50 -2 49 -3 16 50 c11 35 21 49 32 47 24 -4 67 82 67 135 0 60 27 85
115 108 52 13 77 25 98 49 38 43 66 124 74 214 l6 77 59 58 c58 57 88 107 88
145 0 32 -38 71 -80 82 -25 7 -47 22 -61 41 -18 26 -27 30 -53 26 -17 -3 -51
0 -75 6 -34 8 -46 7 -49 -1 -2 -7 -10 -12 -19 -12 -10 0 -12 6 -8 19 7 23 -6
32 -83 55 -52 15 -54 15 -59 -4 -8 -32 -25 -23 -18 9 5 26 3 29 -25 34 -25 6
-30 11 -30 36 0 15 -6 34 -14 40 -7 6 -16 25 -19 40 -10 48 -85 93 -168 100
-66 7 -68 7 -139 74 -55 52 -76 66 -91 62 -16 -5 -20 -3 -18 12 2 10 0 23 -4
30 -10 16 -68 5 -84 -16 -9 -13 -14 -14 -24 -3 -7 6 -25 12 -40 12 -15 0 -41
11 -57 25 -17 14 -39 25 -49 25 -27 0 -53 -31 -53 -64 0 -16 -4 -25 -10 -21
-13 8 -13 48 2 80 6 14 9 27 6 30 -9 9 -38 -7 -38 -21 0 -8 -7 -14 -15 -14
-23 0 -85 -33 -85 -45 0 -6 -11 -26 -24 -44 -22 -29 -25 -31 -34 -15 -8 14
-25 19 -68 21 -47 2 -63 7 -83 28 -24 24 -26 31 -23 110 3 105 -6 117 -87 114
-43 -2 -55 1 -53 12 2 7 8 38 14 69 5 30 16 70 24 89 16 38 8 51 -32 51 -26 0
-46 -22 -72 -82 -15 -34 -28 -49 -46 -54 -37 -9 -55 1 -72 41 -28 69 -34 129
-19 190 8 31 15 72 15 92 0 65 118 157 145 113 12 -19 45 -10 54 14 15 37 68
49 91 21 7 -9 24 -14 39 -13 23 3 26 -1 32 -43 8 -55 43 -139 58 -139 17 0 24
48 16 108 -19 135 2 176 126 260 54 36 59 46 59 113 0 44 2 50 18 45 14 -5 26
7 52 48 19 30 42 55 51 56 31 0 89 30 89 45 0 38 25 65 78 85 30 11 64 27 76
35 11 8 30 15 41 15 15 -1 11 -4 -12 -15 -22 -9 -33 -21 -33 -35 0 -25 3 -25
59 0 93 42 135 65 145 82 17 28 -2 33 -34 10 -36 -27 -62 -28 -83 -4 -21 23
-21 41 -2 66 23 31 18 46 -15 46 -31 0 -99 -29 -135 -59 -15 -12 -14 -9 3 10
13 15 52 41 88 59 60 31 68 33 137 27 68 -6 77 -4 107 18 19 14 50 28 69 31
40 8 51 18 51 52 0 16 -9 27 -31 36 -26 11 -28 14 -13 20 14 5 7 12 -34 31
-46 21 -52 27 -43 44 8 13 6 32 -8 70 -10 28 -21 54 -25 58 -3 4 -21 -7 -39
-24 -44 -42 -62 -46 -77 -19 -9 19 -9 28 2 45 11 19 11 24 -3 34 -8 7 -18 20
-22 30 -5 14 -19 17 -82 17 -59 0 -77 -3 -82 -15 -8 -22 4 -30 22 -15 8 7 15
10 15 6 0 -10 -48 -84 -60 -91 -5 -3 -10 -20 -10 -36 0 -46 -26 -87 -70 -109
-32 -16 -41 -28 -51 -63 -11 -44 -44 -87 -66 -87 -18 0 -17 52 2 97 21 49 19
53 -15 53 -21 0 -36 8 -52 30 -12 17 -30 30 -39 30 -15 0 -17 6 -12 38 7 48
40 82 141 148 84 55 109 63 129 43 7 -7 20 -8 34 -3 13 4 36 6 52 5 21 -2 27
2 27 18 0 11 -4 23 -10 26 -19 12 -10 22 41 46 28 13 68 42 88 65 46 52 98 64
112 27 5 -13 9 -30 8 -36 -1 -19 -87 -77 -115 -77 -30 0 -64 -17 -64 -31 0 -8
15 -9 43 -5 43 7 44 6 53 -26 8 -26 18 -36 51 -48 48 -16 60 -11 43 20 -11 21
-11 21 14 5 24 -16 25 -15 41 9 16 23 16 28 1 57 -22 45 -3 66 26 28 l20 -26
49 26 c27 14 49 29 49 32 0 4 -18 19 -40 34 -28 20 -38 31 -30 39 17 17 11 53
-12 69 -19 13 -21 18 -11 35 11 18 7 19 -100 25 -84 4 -119 3 -139 -8 -15 -7
-30 -10 -33 -5 -11 18 65 30 171 29 77 -2 117 2 134 12 l25 13 -33 6 c-31 5
-32 6 -18 25 14 18 15 18 16 3 0 -25 65 -24 130 2 58 23 83 26 58 6 -27 -20
-22 -25 30 -28 43 -3 47 -5 50 -31 2 -16 -4 -39 -12 -52 -21 -32 -20 -35 8
-35 14 0 27 -4 30 -9 4 -5 -3 -7 -14 -4 -19 5 -50 -11 -50 -27 0 -14 31 -20
51 -10 15 8 19 7 19 -5 0 -8 -7 -15 -15 -15 -25 0 -65 -46 -65 -75 0 -14 4
-25 9 -25 5 0 7 -9 4 -20 -3 -11 -1 -20 5 -20 5 0 12 -16 15 -35 8 -48 43 -95
70 -95 13 0 33 -7 45 -16 39 -27 66 -15 78 35 6 26 19 50 32 59 12 8 22 25 22
38 0 32 26 54 66 54 25 0 44 9 73 35 24 22 49 35 65 35 15 0 50 12 79 27 46
24 49 28 27 31 -14 2 -29 8 -35 13 -6 6 3 7 23 3 37 -7 41 4 12 29 -15 12 -19
24 -14 42 9 35 -30 94 -67 102 -17 3 -34 14 -39 23 -5 10 -24 23 -42 29 -44
16 -210 21 -328 11z"/>
<path d="M9027 6229 c23 -11 70 -21 105 -24 l63 -5 -85 25 c-102 30 -144 32
-83 4z"/>
<path d="M9650 6035 c14 -8 30 -14 35 -14 6 0 -1 6 -15 14 -14 8 -29 14 -35
14 -5 0 1 -6 15 -14z"/>
<path d="M9552 5988 c2 -34 7 -42 20 -40 12 2 26 -15 49 -59 27 -55 30 -66 21
-102 -6 -21 -7 -47 -4 -57 12 -29 87 -108 116 -122 24 -10 30 -10 41 5 11 16
13 16 26 1 7 -9 12 -32 10 -50 -2 -25 5 -45 28 -76 l30 -41 -32 -17 c-19 -11
-32 -25 -32 -38 -1 -11 -7 -27 -15 -37 -8 -9 -19 -27 -25 -39 -8 -14 -20 -20
-37 -19 -22 1 -24 -2 -20 -24 4 -23 3 -24 -17 -14 -12 7 -26 9 -31 6 -19 -12
-9 -30 23 -45 58 -27 130 -155 98 -174 -5 -4 -35 1 -67 9 -66 17 -103 19 -124
5 -12 -8 -12 -15 3 -57 10 -27 17 -64 16 -83 0 -19 3 -51 8 -70 8 -30 14 -36
46 -41 20 -3 46 -14 57 -24 10 -9 25 -14 32 -10 110 59 133 74 131 86 0 8 -4
28 -8 46 -7 30 -5 33 30 50 34 16 36 20 30 50 l-6 33 39 -6 c31 -5 40 -3 45
10 11 28 36 18 105 -41 160 -139 177 -165 114 -171 -18 -2 -32 -7 -32 -11 0
-12 46 -41 63 -41 19 0 41 53 35 85 -3 14 -1 25 3 25 24 0 4 32 -39 64 -56 41
-142 130 -142 147 0 6 19 -5 43 -25 23 -20 66 -54 95 -77 28 -22 52 -46 52
-53 0 -7 11 -29 24 -49 13 -19 27 -45 31 -58 7 -22 63 -86 68 -78 1 2 8 14 15
26 18 33 15 47 -10 58 -16 7 -22 17 -20 35 6 55 27 34 82 -78 22 -46 44 -81
49 -77 5 3 12 1 16 -5 10 -16 25 -12 25 7 0 14 2 14 21 -3 17 -16 22 -16 30
-4 8 13 10 13 18 1 15 -24 34 -139 27 -166 -10 -38 -78 -35 -143 5 -26 16 -63
33 -82 36 l-34 7 6 -41 c8 -48 -3 -60 -28 -32 -10 11 -29 20 -41 20 -14 0 -29
9 -36 21 -7 11 -37 32 -66 45 -58 26 -82 63 -82 127 0 51 -18 61 -83 47 -38
-7 -62 -8 -81 0 -23 8 -41 4 -113 -26 -85 -35 -87 -35 -128 -20 -54 21 -55 21
-55 -14 0 -23 -4 -30 -20 -30 -16 0 -20 -7 -20 -30 0 -23 -5 -30 -19 -30 -20
0 -31 -34 -31 -95 0 -20 -6 -35 -15 -39 -8 -3 -20 -16 -26 -29 -6 -12 -20 -27
-32 -32 -13 -6 -35 -38 -54 -77 -18 -37 -41 -72 -52 -78 -15 -7 -21 -21 -21
-44 0 -20 -8 -40 -20 -51 -28 -26 -25 -44 10 -56 29 -11 30 -13 30 -77 0 -40
-6 -79 -15 -96 -31 -60 -7 -144 59 -206 20 -19 41 -51 46 -71 7 -26 18 -39 42
-50 21 -9 42 -30 57 -57 29 -54 63 -72 89 -49 22 20 89 22 127 5 20 -9 31 -9
45 0 11 6 51 20 89 31 76 21 83 19 95 -31 6 -25 11 -28 49 -28 72 0 73 -5 38
-117 l-31 -98 17 -55 c23 -75 22 -191 -1 -258 -10 -30 -38 -84 -63 -120 -66
-98 -73 -116 -80 -190 -4 -46 -16 -87 -38 -132 -18 -36 -47 -105 -66 -153 -18
-49 -42 -98 -54 -110 -27 -27 -37 -54 -25 -62 18 -11 100 7 130 29 15 11 82
59 147 106 136 98 204 163 327 313 115 141 146 194 192 329 21 61 60 147 86
192 112 189 198 400 198 487 0 26 -3 29 -24 23 -21 -5 -25 -1 -31 26 -6 27 -3
36 19 54 44 36 67 106 69 209 3 127 -12 264 -29 281 -15 16 -19 46 -5 46 27 0
-64 340 -140 524 -164 400 -485 800 -823 1025 -151 101 -176 115 -160 89 5 -7
2 -9 -7 -6 -8 4 -58 25 -111 47 -54 23 -107 41 -119 41 -18 0 -20 -5 -17 -42z
m339 -445 c13 -16 12 -17 -3 -4 -10 7 -18 15 -18 17 0 8 8 3 21 -13z"/>
<path d="M7890 5965 c-10 -12 -9 -16 4 -21 16 -6 46 11 46 27 0 15 -37 10 -50
-6z"/>
<path d="M8960 5900 c0 -4 10 -11 23 -14 21 -7 21 -7 2 -15 -19 -8 -19 -8 3
-15 12 -4 22 -12 22 -17 0 -5 10 -9 22 -9 12 0 36 -5 55 -12 29 -11 35 -10 53
10 12 12 30 22 40 22 28 0 25 14 -7 36 -22 15 -48 19 -120 20 -51 0 -93 -2
-93 -6z"/>
<path d="M7634 5785 c-15 -11 -16 -14 -3 -15 8 0 24 7 35 15 15 11 16 14 3 15
-8 0 -24 -7 -35 -15z"/>
<path d="M3640 5738 c-29 -15 -52 -36 -64 -59 -18 -32 -18 -41 -8 -78 14 -46
58 -75 131 -87 46 -7 80 -28 68 -41 -14 -13 -102 -6 -136 11 l-32 17 -21 -47
c-19 -44 -19 -48 -4 -59 26 -20 135 -37 186 -30 96 13 153 78 134 152 -12 48
-53 76 -133 92 -63 12 -83 27 -60 43 13 8 66 5 120 -7 22 -6 27 -2 43 33 10
22 16 45 12 50 -9 14 -88 32 -143 32 -31 0 -65 -8 -93 -22z"/>
<path d="M6483 5741 c-23 -11 -50 -32 -60 -47 -25 -38 -21 -99 7 -129 22 -23
97 -55 130 -55 9 0 25 -7 36 -15 16 -13 17 -16 4 -25 -18 -13 -94 -4 -132 16
-27 14 -27 14 -48 -33 -11 -25 -17 -50 -13 -54 5 -5 37 -16 72 -25 140 -35
261 18 261 115 0 62 -42 101 -125 117 -70 12 -89 22 -75 39 15 18 62 19 112 1
l36 -13 17 43 c9 24 14 48 11 53 -9 13 -89 31 -143 31 -26 0 -67 -9 -90 -19z"/>
<path d="M3257 5718 c-8 -18 -44 -101 -81 -184 -36 -84 -66 -155 -66 -158 0
-3 29 -6 64 -6 l64 0 12 35 12 35 69 0 70 0 15 -35 c14 -35 14 -35 80 -35 78
0 80 -23 -21 207 l-74 168 -65 3 -65 3 -14 -33z m103 -170 c0 -13 -8 -18 -30
-18 -35 0 -34 -3 -14 46 l16 38 14 -24 c7 -14 13 -33 14 -42z"/>
<path d="M3982 5580 c-99 -229 -98 -210 -20 -210 l64 0 13 35 12 35 70 0 69 0
14 -35 15 -35 66 0 c37 0 65 4 63 8 -1 5 -39 90 -82 190 l-80 182 -65 0 -66
-1 -73 -169z m156 -3 c17 -46 16 -47 -19 -47 -24 0 -30 3 -25 16 3 9 9 27 12
40 8 33 18 30 32 -9z"/>
<path d="M4370 5560 l0 -191 58 3 57 3 3 75 3 74 39 -62 c55 -86 75 -85 129 6
l41 67 0 -82 0 -83 60 0 60 0 0 190 0 190 -54 0 -54 0 -56 -95 c-31 -52 -59
-95 -61 -95 -2 0 -29 43 -61 95 l-58 95 -53 0 -53 0 0 -190z"/>
<path d="M4880 5561 l0 -191 129 0 c186 0 241 24 241 107 0 33 -6 50 -25 69
l-24 24 21 36 c26 44 16 87 -25 118 -25 19 -45 21 -173 24 l-144 3 0 -190z
m218 72 c3 -21 -1 -23 -42 -23 -43 0 -46 2 -46 26 0 23 3 25 43 22 35 -2 43
-7 45 -25z m20 -139 c3 -24 -19 -34 -75 -34 -30 0 -33 3 -33 31 l0 30 53 -3
c44 -3 52 -6 55 -24z"/>
<path d="M5292 5563 l3 -188 150 0 150 0 3 48 3 47 -85 0 -86 0 0 140 0 140
-70 0 -70 0 2 -187z"/>
<path d="M5630 5560 l0 -190 155 0 155 0 0 50 0 50 -90 0 c-89 0 -90 0 -90 25
0 25 1 25 80 25 l80 0 0 45 0 45 -80 0 c-73 0 -80 2 -80 20 0 17 8 19 88 22
l87 3 3 48 3 47 -155 0 -156 0 0 -190z"/>
<path d="M6037 5576 c-42 -95 -80 -181 -83 -190 -5 -14 3 -16 60 -16 66 0 66
0 80 35 l15 35 68 0 69 0 13 -35 12 -35 65 0 c35 0 64 4 64 8 0 5 -35 89 -78
188 l-78 179 -66 3 -65 3 -76 -175z m161 -13 c11 -32 10 -33 -19 -33 -32 0
-36 13 -17 55 13 29 21 24 36 -22z"/>
<path d="M9503 5620 c-6 -23 -23 -27 -23 -5 0 8 -4 15 -10 15 -18 0 -10 -22
15 -42 14 -11 25 -27 25 -36 0 -9 11 -24 23 -32 13 -8 40 -26 60 -38 38 -25
49 -52 21 -52 -11 0 -14 -5 -10 -16 3 -9 6 -22 6 -30 0 -8 10 -14 27 -14 25 0
25 -1 10 -18 -25 -27 -22 -46 6 -37 12 4 45 9 73 12 50 5 51 6 52 39 1 27 -4
38 -26 51 -15 10 -51 39 -80 65 -30 26 -58 48 -63 48 -5 0 -9 13 -9 30 0 23
-5 31 -25 36 -13 3 -27 15 -30 25 -8 25 -35 24 -42 -1z"/>
<path d="M9470 5485 c-11 -21 -12 -30 -2 -45 7 -11 12 -31 12 -45 0 -20 5 -25
24 -25 14 0 28 5 31 10 3 6 15 10 26 10 22 0 22 0 6 65 -12 47 -15 50 -48 53
-29 2 -37 -1 -49 -23z"/>
<path d="M8095 5362 c-3 -11 -23 -33 -45 -51 -22 -18 -40 -41 -40 -51 0 -17 7
-20 43 -20 24 0 56 -8 75 -20 l33 -20 14 35 c8 19 15 37 15 41 0 10 -31 33
-59 45 -22 9 -23 11 -7 28 21 23 20 31 -3 31 -11 0 -22 -8 -26 -18z"/>
<path d="M7870 5326 c0 -20 27 -39 45 -32 22 8 18 21 -10 34 -33 15 -35 15
-35 -2z"/>
<path d="M6265 5315 c-5 -2 -27 -6 -48 -10 -45 -7 -114 -65 -134 -112 -30 -73
-5 -174 55 -225 44 -37 94 -51 168 -46 50 3 72 10 105 33 125 89 110 277 -26
335 -42 18 -103 31 -120 25z m70 -130 c19 -18 25 -35 25 -65 0 -53 -12 -75
-50 -89 -88 -30 -149 82 -81 150 36 36 73 37 106 4z"/>
<path d="M6650 5311 c-89 -19 -139 -76 -126 -146 9 -46 42 -71 125 -94 82 -23
86 -25 76 -40 -9 -16 -76 -13 -125 4 -24 8 -44 14 -44 13 -21 -43 -36 -81 -36
-87 0 -17 94 -41 157 -41 106 0 170 42 180 119 5 36 2 44 -29 75 -26 26 -48
37 -95 46 -74 15 -92 25 -76 41 11 11 88 8 129 -5 18 -6 23 -1 37 36 10 24 17
46 17 49 0 18 -140 40 -190 30z"/>
<path d="M4488 5304 c-5 -4 -8 -90 -8 -191 l0 -183 124 0 c141 0 177 9 228 58
47 45 65 109 48 173 -29 108 -90 141 -265 147 -66 2 -123 1 -127 -4z m242
-124 c14 -14 20 -33 20 -64 0 -56 -32 -86 -91 -86 l-39 0 0 85 0 85 45 0 c32
0 51 -6 65 -20z"/>
<path d="M4930 5120 l0 -190 161 0 160 0 -3 48 -3 47 -92 3 c-84 2 -93 5 -93
22 0 17 9 19 78 22 l77 3 0 45 0 45 -77 3 c-70 3 -78 5 -78 22 0 18 7 20 91
20 l90 0 -3 48 -3 47 -152 3 -153 3 0 -191z"/>
<path d="M5457 5303 c-4 -3 -7 -89 -7 -190 l0 -183 128 0 c102 0 135 4 167 19
46 21 79 54 94 94 16 40 14 123 -3 156 -25 47 -80 88 -136 100 -55 12 -233 15
-243 4z m242 -129 c51 -64 10 -144 -74 -144 l-45 0 0 85 0 85 49 0 c42 0 53
-4 70 -26z"/>
<path d="M5900 5120 l0 -190 65 0 65 0 -2 188 -3 187 -62 3 -63 3 0 -191z"/>
<path d="M2180 4720 c0 -183 1 -190 20 -190 19 0 20 7 20 190 0 183 -1 190
-20 190 -19 0 -20 -7 -20 -190z"/>
<path d="M3027 4897 c-8 -21 8 -39 29 -35 27 5 25 42 -2 46 -12 2 -24 -3 -27
-11z"/>
<path d="M1580 4710 c0 -173 1 -180 20 -180 19 0 20 7 20 180 0 173 -1 180
-20 180 -19 0 -20 -7 -20 -180z"/>
<path d="M1849 4801 c-69 -22 -99 -61 -99 -128 0 -50 18 -82 59 -110 43 -29
104 -30 149 -3 l32 20 0 -30 c0 -72 -82 -108 -163 -72 -46 21 -57 20 -57 -5 0
-21 63 -43 122 -43 116 0 138 38 138 233 0 130 -1 137 -20 137 -13 0 -20 -7
-20 -20 0 -21 0 -21 -27 -1 -34 24 -79 32 -114 22z m90 -45 c54 -28 66 -97 25
-145 -22 -27 -32 -31 -74 -31 -61 0 -100 34 -100 89 0 80 76 124 149 87z"/>
<path d="M2433 4799 c-101 -30 -123 -186 -34 -246 46 -31 127 -32 165 -2 39
31 19 47 -29 24 -49 -23 -96 -13 -129 26 -14 17 -26 35 -26 40 0 5 52 9 116 9
l117 0 -6 36 c-14 87 -91 137 -174 113z m101 -51 c13 -13 27 -33 31 -45 6 -23
5 -23 -89 -23 -109 0 -119 9 -67 61 37 37 88 39 125 7z"/>
<path d="M2770 4799 c-38 -8 -70 -41 -70 -71 0 -38 20 -57 78 -73 109 -30 126
-47 80 -79 -28 -20 -68 -20 -113 -2 -28 12 -36 12 -45 1 -30 -36 120 -61 180
-30 32 17 47 63 31 94 -7 11 -30 25 -54 32 -93 25 -109 32 -114 45 -3 8 3 24
13 35 15 17 27 20 64 16 25 -2 52 -8 61 -11 10 -5 19 -1 23 9 10 26 -73 48
-134 34z"/>
<path d="M3273 4798 c-46 -10 -72 -33 -56 -49 6 -6 20 -4 39 6 60 31 134 7
134 -44 0 -15 -11 -19 -71 -24 -83 -7 -119 -31 -119 -79 0 -46 39 -78 97 -78
28 0 58 7 71 16 20 14 22 14 22 0 0 -9 9 -16 20 -16 19 0 20 7 20 106 0 103
-1 106 -29 135 -16 16 -36 29 -44 29 -9 0 -21 2 -29 4 -7 2 -32 0 -55 -6z
m117 -172 c0 -52 -97 -88 -134 -50 -19 18 -21 45 -4 62 7 7 39 12 75 12 60 0
63 -1 63 -24z"/>
<path d="M3030 4665 c0 -128 1 -135 20 -135 19 0 20 7 20 135 0 128 -1 135
-20 135 -19 0 -20 -7 -20 -135z"/>
<path d="M5017 4654 c-4 -4 -7 -76 -7 -160 l0 -154 -172 -2 -173 -3 -3 -162
-2 -163 162 0 c90 0 169 -4 175 -8 10 -6 13 -256 15 -1173 l3 -1164 164 -3
c120 -2 167 1 178 10 14 11 15 146 12 1166 -4 1016 -2 1154 11 1162 8 5 84 10
168 10 l152 0 -2 163 -3 162 -162 3 c-119 2 -164 6 -165 15 -1 6 -2 77 -2 157
l-1 145 -171 3 c-93 1 -173 -1 -177 -4z"/>
<path d="M3556 4449 c-126 -31 -187 -151 -132 -262 31 -62 85 -91 177 -96 125
-5 191 37 219 138 31 116 -43 209 -180 225 -25 2 -63 0 -84 -5z"/>
<path d="M1795 4275 c-150 -34 -291 -115 -372 -213 -100 -122 -161 -308 -149
-456 14 -183 70 -312 184 -425 127 -126 273 -188 463 -198 150 -8 273 15 388
72 81 41 201 137 201 161 0 11 -197 193 -217 201 -7 3 -36 -16 -65 -41 -75
-65 -142 -90 -248 -90 -68 -1 -95 4 -134 22 -80 37 -131 85 -168 160 -31 62
-33 74 -33 167 0 93 2 105 33 167 40 81 102 139 181 169 120 45 289 8 377 -82
21 -21 42 -39 47 -39 14 0 227 194 227 206 0 17 -81 89 -149 133 -32 21 -97
50 -142 66 -74 25 -101 29 -224 31 -92 2 -160 -2 -200 -11z"/>
<path d="M7108 4273 c-43 -4 -48 -7 -48 -29 0 -31 24 -41 64 -25 27 10 33 9
48 -9 9 -11 20 -20 26 -20 5 0 19 -9 32 -20 17 -15 37 -20 82 -20 56 0 58 1
48 20 -12 22 -48 40 -82 40 -11 0 -38 16 -61 35 -22 19 -45 34 -51 33 -6 -1
-32 -3 -58 -5z"/>
<path d="M7404 4125 c-16 -41 29 -92 59 -67 7 6 54 13 105 17 79 7 92 10 92
26 0 15 -8 17 -67 14 -46 -2 -74 1 -87 11 -28 19 -95 18 -102 -1z"/>
<path d="M7240 4084 c0 -10 45 -42 52 -37 5 2 8 13 8 24 0 14 -7 19 -30 19
-16 0 -30 -3 -30 -6z"/>
<path d="M3175 3986 c-60 -15 -121 -45 -164 -81 l-31 -27 0 51 0 51 -165 0
-165 0 0 -485 0 -485 173 2 172 3 5 270 c4 225 8 275 21 300 37 66 97 97 204
104 l80 6 0 150 0 150 -40 2 c-22 1 -62 -4 -90 -11z"/>
<path d="M4276 3990 c-128 -23 -238 -89 -291 -174 -25 -42 -31 -62 -34 -128
-4 -103 14 -153 79 -211 59 -53 110 -71 299 -102 154 -26 194 -43 189 -78 -9
-67 -198 -76 -363 -18 -49 18 -99 34 -110 37 -18 5 -27 -9 -69 -105 -37 -87
-46 -115 -37 -125 20 -24 152 -67 256 -83 68 -10 137 -13 215 -10 167 8 261
40 348 120 61 57 85 114 85 202 0 176 -100 256 -369 295 -169 24 -229 56 -189
100 28 31 81 43 174 38 55 -3 107 -13 146 -28 111 -42 104 -45 153 67 23 54
42 108 42 120 0 23 -32 38 -145 68 -70 19 -307 28 -379 15z"/>
<path d="M6100 3984 c-247 -65 -400 -252 -400 -489 0 -332 297 -553 670 -496
103 15 228 77 298 147 140 140 179 392 90 574 -58 119 -197 227 -344 265 -73
19 -240 19 -314 -1z m273 -296 c99 -77 110 -266 19 -361 -40 -42 -80 -60 -138
-60 -176 0 -266 225 -154 383 52 74 199 94 273 38z"/>
<path d="M3445 3968 c-3 -7 -4 -224 -3 -483 l3 -470 173 -3 172 -2 -2 482 -3
483 -168 3 c-128 2 -169 0 -172 -10z"/>
<path d="M3128 2940 c-266 -30 -438 -187 -438 -399 0 -213 115 -316 435 -387
214 -48 275 -78 275 -138 0 -65 -65 -96 -205 -96 -111 0 -216 25 -322 76 -41
19 -80 33 -86 31 -18 -7 -120 -244 -112 -258 13 -20 147 -77 231 -97 314 -78
595 -37 744 108 125 122 147 324 49 459 -63 88 -132 120 -397 187 -189 47
-232 66 -246 107 -48 137 228 173 477 63 30 -13 59 -21 65 -17 5 3 31 59 58
124 35 88 45 123 38 134 -14 22 -134 68 -224 87 -99 20 -246 27 -342 16z"/>
<path d="M10650 2831 c0 -5 -25 -36 -55 -68 -51 -55 -235 -295 -235 -307 0 -3
8 -6 18 -6 22 0 114 110 207 250 66 99 87 140 70 140 -3 0 -5 -4 -5 -9z"/>
<path d="M4130 2635 c-97 -20 -219 -69 -235 -94 -5 -9 100 -231 109 -231 2 0
32 13 66 29 87 41 183 57 256 42 69 -13 98 -31 124 -74 39 -63 39 -64 -152
-70 -225 -7 -311 -32 -385 -109 -47 -49 -63 -96 -63 -186 0 -132 52 -207 187
-269 51 -24 70 -27 158 -27 128 0 196 20 258 75 l47 41 0 -51 0 -51 160 0 160
0 0 303 c0 166 -4 328 -9 359 -28 167 -150 284 -335 319 -69 13 -269 10 -346
-6z m291 -585 l49 0 0 -40 c0 -78 -49 -128 -142 -145 -51 -10 -120 22 -137 64
-31 73 50 140 153 125 16 -2 50 -4 77 -4z"/>
<path d="M6940 2643 c-101 -17 -258 -76 -275 -102 -6 -10 100 -231 111 -231 3
0 34 13 69 30 133 63 281 62 351 -3 19 -18 37 -46 40 -63 l6 -31 -174 -6
c-137 -4 -187 -9 -239 -26 -80 -25 -139 -67 -176 -123 -26 -38 -28 -49 -28
-137 0 -75 4 -105 19 -135 63 -126 225 -193 406 -168 90 13 124 28 181 79 l39
35 0 -51 0 -51 161 0 161 0 -4 348 -3 347 -31 66 c-52 109 -142 178 -280 214
-55 14 -267 19 -334 8z m304 -616 c21 -60 -51 -143 -141 -162 -60 -12 -142 33
-145 81 -6 84 49 114 202 111 72 -2 75 -3 84 -30z"/>
<path d="M5470 2628 c0 -15 380 -939 392 -955 8 -10 57 -13 185 -13 l174 0 24
53 c81 181 375 909 370 917 -10 15 -310 13 -322 -2 -6 -7 -61 -138 -124 -290
-63 -152 -117 -274 -121 -270 -3 4 -52 124 -108 267 -56 143 -108 270 -116
283 -14 21 -19 22 -184 22 -122 0 -170 -3 -170 -12z"/>
</g>
</svg>
